<svg width="584" height="507" viewBox="0 0 584 507" fill="none" xmlns="http://www.w3.org/2000/svg">
<path d="M132.477 319.048H27.7134V505.565H132.477V319.048Z" fill="#FFEEFF"/>
<path d="M315.315 258.738H205.634V505.566H315.315V258.738Z" fill="#FFEEFF"/>
<path d="M511.075 180.221H396.215V505.565H511.075V180.221Z" fill="#FFEEFF"/>
<path d="M323.721 44.557L300.386 30.1963C300.195 29.2539 299.977 28.3118 299.706 27.3715C294.213 8.22755 274.24 -2.83809 255.096 2.65505C237.618 7.67042 226.881 24.7551 229.324 42.2589L212.576 62.7399C212.32 63.0535 212.627 63.5093 213.014 63.3898L234.635 56.7056C242.997 69.8318 259.269 76.4932 274.991 71.9818C287.624 68.3562 296.736 58.4243 299.896 46.5871L323.465 45.5438C323.99 45.5205 324.169 44.8326 323.721 44.557Z" fill="white"/>
<path d="M265.011 74.0316C260.54 74.0316 256.092 73.2018 251.825 71.5486C244.712 68.7929 238.529 63.7974 234.365 57.4525L213.202 63.9954C212.758 64.133 212.288 63.9654 212.029 63.5813C211.771 63.1968 211.794 62.6979 212.088 62.3396L228.662 42.0718C227.531 33.4895 229.496 24.7503 234.21 17.4318C239.019 9.96379 246.375 4.5002 254.923 2.04717C274.374 -3.53334 294.736 7.74838 300.317 27.1974C300.545 27.993 300.754 28.8473 300.952 29.8011L324.054 44.0183C324.493 44.2884 324.701 44.8054 324.572 45.3043C324.443 45.8032 324.01 46.1539 323.495 46.1767L300.386 47.1998C296.962 59.3928 287.338 69.0981 275.167 72.5907C271.816 73.5521 268.406 74.0312 265.011 74.0316ZM234.91 55.9584L235.17 56.3657C243.536 69.4995 259.838 75.6721 274.817 71.3734C286.892 67.9083 296.038 58.5816 299.285 46.4245L299.404 45.9758L323.113 44.9262L299.821 30.5921L299.766 30.3228C299.557 29.2921 299.339 28.3843 299.099 27.5469C293.71 8.76935 274.048 -2.12322 255.272 3.26482C238.416 8.10123 227.531 24.828 229.952 42.1722L229.991 42.4461L213.538 62.5662L234.91 55.9584Z" fill="#940B92"/>
<path d="M274.861 34.9672C274.861 29.3584 269.998 24.885 264.258 25.5333C260.071 26.0064 256.599 29.3475 255.977 33.5157C255.598 36.0532 256.233 38.4273 257.528 40.3147C258.032 41.05 258.291 41.9236 258.291 42.8155V48.6838H272.438V42.8163C272.438 41.935 272.684 41.0656 273.185 40.3401C274.239 38.8126 274.861 36.9644 274.861 34.9672Z" fill="white"/>
<path d="M273.071 49.3165H257.659V42.815C257.659 42.0359 257.433 41.2947 257.006 40.6722C255.556 38.5594 254.969 35.9843 255.351 33.4216C256.012 28.9895 259.729 25.4071 264.188 24.9035C267.076 24.5773 269.963 25.491 272.111 27.4102C274.261 29.331 275.495 32.0854 275.495 34.9663C275.495 37.0226 274.876 39.0046 273.706 40.6992C273.291 41.3002 273.071 42.0321 273.071 42.8154V49.3165ZM258.925 48.0503H271.805V42.8154C271.805 41.7738 272.102 40.7929 272.664 39.9796C273.687 38.4977 274.228 36.7643 274.228 34.9668C274.228 32.4454 273.149 30.0354 271.268 28.3543C269.36 26.6504 266.895 25.8718 264.33 26.1621C260.431 26.6023 257.181 29.7341 256.603 33.6086C256.268 35.8535 256.782 38.1078 258.05 39.9564C258.622 40.7908 258.924 41.7793 258.924 42.815V48.0503H258.925Z" fill="#940B92"/>
<path d="M272.439 52.7087H258.292V57.9242H272.439V52.7087Z" fill="white"/>
<path d="M273.073 58.5572H257.66V52.0756H273.073V58.5572ZM258.926 57.291H271.807V53.3417H258.926V57.291Z" fill="#940B92"/>
<path d="M261.988 30.9579C261.988 30.9579 259.245 32.7517 260.616 36.1281L261.988 30.9579Z" fill="white"/>
<path d="M260.029 36.3654C258.789 33.3126 260.541 31.1462 261.641 30.427L262.334 31.4868L261.988 30.9571L262.337 31.4855C262.243 31.548 260.051 33.0552 261.202 35.8893L260.029 36.3654Z" fill="#940B92"/>
<path d="M245.966 19.5886L245.23 20.6189L253.355 26.4218L254.091 25.3915L245.966 19.5886Z" fill="#940B92"/>
<path d="M284.1 19.0407L275.976 24.8446L276.712 25.8749L284.836 20.071L284.1 19.0407Z" fill="#940B92"/>
<path d="M264.825 9.7765L264.507 19.7562L265.772 19.7966L266.091 9.81689L264.825 9.7765Z" fill="#940B92"/>
<path d="M584 103.348C584 124.404 566.923 141.467 545.867 141.467C524.811 141.467 507.748 124.404 507.748 103.348C507.748 82.4199 524.598 65.4277 545.483 65.2285C545.355 69.3774 545.227 74.2505 545.128 79.1093C532.085 79.493 521.614 90.1914 521.614 103.347C521.614 116.731 532.483 127.6 545.867 127.6C559.265 127.6 570.12 116.731 570.12 103.347C570.12 100.705 569.693 98.1616 568.898 95.7888L582.153 91.6403C583.361 95.3346 584 99.256 584 103.348Z" fill="#FFEEFF"/>
<path d="M582.153 91.6405L568.898 95.789C565.744 86.0849 556.622 79.0951 545.867 79.0951C545.625 79.0951 545.37 79.0951 545.128 79.1095C545.228 74.2503 545.356 69.3772 545.484 65.2287C545.612 65.2144 545.74 65.2144 545.867 65.2144C562.831 65.2144 577.223 76.3104 582.153 91.6405Z" fill="#940B92"/>
<path d="M184.581 79.3676C185.071 79.6128 192.06 87.3361 188.995 88.8074C185.93 90.2787 181.761 89.6654 181.761 89.6654L184.581 79.3676Z" fill="#D28572"/>
<path d="M153.869 95.8214L145.377 120.791L167.915 132.659L173.756 99.4005L153.877 95.8218L153.869 95.8214Z" fill="#FFBC96"/>
<path d="M173.301 100.549L170.33 118.292C162.918 108.956 159.829 98.5567 159.829 98.5567L163.999 98.3203L173.301 100.549Z" fill="#D28572"/>
<path d="M184.44 67.8904C184.44 67.8904 189.5 102.906 179.784 105.537C170.069 108.168 153.877 95.8217 153.877 95.8217L158.734 66.6757L172.903 62.0204L184.44 67.8904Z" fill="#FFBC96"/>
<path d="M184.44 67.8902C184.44 67.8902 175.332 64.2469 169.26 79.832L166.224 85.0943L151.246 83.4753L153.675 64.4495L166.831 57.9726C166.831 57.9726 181.606 48.0549 184.44 67.8902Z" fill="#202020"/>
<path d="M167.441 59.9967C167.441 59.9967 159.817 54.5319 147.673 66.6758C135.529 78.8198 141.736 102.973 154.69 102.703C167.316 102.441 163.798 89.9521 162.988 87.7258C162.179 85.4994 167.441 59.9967 167.441 59.9967Z" fill="#202020"/>
<path d="M169.08 89.7644C171.87 88.1535 172.643 84.2677 170.805 81.0853C168.968 77.903 165.217 76.6291 162.426 78.24C159.636 79.851 158.864 83.7367 160.701 86.9191C162.539 90.1014 166.29 91.3754 169.08 89.7644Z" fill="#FFBC96"/>
<path d="M167.427 86.5291C167.427 86.508 167.402 84.404 166.137 83.2539C165.486 82.6622 164.588 82.4153 163.474 82.5153L163.36 81.2546C164.847 81.1196 166.071 81.4792 166.996 82.3233C168.674 83.8558 168.693 86.4194 168.693 86.5279H167.426H168.06L167.427 86.5291Z" fill="#202020"/>
<path opacity="0.4" d="M176.815 92.437C179.496 92.437 181.669 90.264 181.669 87.5833C181.669 84.9027 179.496 82.7296 176.815 82.7296C174.135 82.7296 171.961 84.9027 171.961 87.5833C171.961 90.264 174.135 92.437 176.815 92.437Z" fill="#FFFFF9"/>
<path d="M146.613 72.7524C148.27 66.947 144.907 60.8973 139.102 59.2401C133.296 57.5828 127.247 60.9456 125.59 66.751C123.932 72.5565 127.295 78.6061 133.101 80.2634C138.906 81.9206 144.956 78.5578 146.613 72.7524Z" fill="#202020"/>
<path d="M157.763 480.679C155.956 473.854 154.752 461.822 154.752 461.822L131.616 463.248L132.181 478.23C138.01 481.996 149.409 488.166 161.549 488.237C159.887 486.028 158.519 483.538 157.763 480.679Z" fill="#FFBC96"/>
<path d="M175.983 501.438C173.071 498.262 166.15 494.355 161.547 488.238C149.406 488.167 138.008 481.997 132.179 478.231L133.198 505.242H137.794L140.329 492.406C140.329 492.406 155.7 504.766 166.475 505.4C177.251 506.034 177.726 503.34 175.983 501.438Z" fill="#202020"/>
<path d="M120.841 243.399C115.462 248.076 125.119 417.39 128.447 468.732L160.298 468.256L155.068 250.055L120.841 243.399Z" fill="#202020"/>
<path d="M179.154 480.679C177.348 473.854 176.143 461.822 176.143 461.822L153.008 463.248L153.573 478.23C159.402 481.996 170.8 488.166 182.941 488.237C181.279 486.028 179.911 483.538 179.154 480.679Z" fill="#FFBC96"/>
<path d="M197.378 501.438C194.466 498.262 187.545 494.355 182.942 488.238C170.801 488.167 159.403 481.997 153.574 478.231L154.593 505.242H159.188L161.724 492.406C161.724 492.406 177.094 504.766 187.87 505.4C198.645 506.034 199.121 503.34 197.378 501.438Z" fill="#202020"/>
<path d="M131.296 246.251L149.278 468.705L182.638 469.682C182.638 469.682 184.064 290.462 176.458 249.104L131.296 246.251Z" fill="#202020"/>
<path d="M179.784 354.611C179.708 354.611 179.632 354.607 179.556 354.601L176.237 354.325L176.342 353.063L179.661 353.339C180.357 353.394 180.994 352.944 181.165 352.262C181.271 351.836 181.179 351.393 180.912 351.045C180.645 350.697 180.24 350.494 179.802 350.487L169.104 350.317L169.124 349.051L179.821 349.221C180.649 349.234 181.412 349.618 181.916 350.274C182.42 350.93 182.594 351.767 182.393 352.569C182.09 353.782 181.013 354.611 179.784 354.611Z" fill="#202020"/>
<path d="M147.62 114.728L149.838 104.824C149.838 104.824 160.538 109.818 167.348 115.052C170.222 117.26 172.015 120.584 172.269 124.2L172.894 133.11L153.879 127.88L147.62 114.728Z" fill="#FED3D1"/>
<path d="M267.256 224.859C256.521 224.334 248.636 220.547 242.536 214.718L242.219 198.396L270.108 200.615L277.873 207.904L267.256 224.859Z" fill="#D28572"/>
<path d="M200.863 220.264C200.863 220.264 212.747 217.57 213.856 194.752L203.398 202.992L200.863 220.264Z" fill="#202020"/>
<path d="M147.621 114.728L164.893 123.669C171.209 126.938 175.77 132.819 177.326 139.759C182.2 161.483 191.002 212.393 182.165 267.802C182.165 267.802 146.512 266.693 112.284 246.251L125.686 144.896C126.849 136.102 131.315 128.081 138.178 122.461L147.621 114.728Z" fill="#610C9F"/>
<path d="M203.714 194.276L234.955 195.661C238.134 195.802 241.257 196.619 244.053 198.138C248.409 200.505 252.559 203.387 256.5 206.79C258.801 208.777 259.361 212.136 257.865 214.782C257.475 215.473 256.96 216.084 256.346 216.586L252.532 219.707C252.208 219.972 251.86 220.204 251.491 220.401L246.046 223.304C245.222 223.744 244.314 224.011 243.381 224.048C240.462 224.163 233.935 223.685 228.752 217.966L188.819 213.45L195.475 198.475L203.714 194.276Z" fill="#FFBC96"/>
<path d="M270.11 200.615L251.27 194.409C250.358 194.109 249.392 194.052 248.452 194.246C243.964 195.172 230.758 198.234 233.029 201.803C234.693 204.418 247.925 200.298 247.925 200.298L270.11 200.615Z" fill="#D28572"/>
<path d="M224.71 219.384C223.549 218.591 223.251 217.006 224.045 215.845L226.92 211.638C227.713 210.477 229.298 210.179 230.459 210.973C231.62 211.766 231.918 213.351 231.125 214.512L228.249 218.718C227.456 219.879 225.872 220.177 224.71 219.384Z" fill="#D28572"/>
<path d="M228.34 221.498C227.179 220.705 226.881 219.12 227.674 217.959L231.511 212.345C232.304 211.184 233.889 210.886 235.05 211.68C236.211 212.473 236.509 214.058 235.715 215.219L231.879 220.832C231.086 221.994 229.501 222.292 228.34 221.498Z" fill="#D28572"/>
<path d="M232.735 223.527C231.574 222.733 231.276 221.148 232.069 219.988L234.944 215.781C235.738 214.62 237.323 214.322 238.483 215.115C239.644 215.909 239.942 217.494 239.149 218.654L236.274 222.861C235.48 224.022 233.896 224.32 232.735 223.527Z" fill="#D28572"/>
<path d="M236.777 225.26L236.621 225.154C235.646 224.487 235.396 223.156 236.062 222.181L238.115 219.176C238.782 218.201 240.113 217.951 241.089 218.617L241.244 218.724C242.22 219.39 242.47 220.722 241.803 221.697L239.75 224.701C239.083 225.677 237.752 225.927 236.777 225.26Z" fill="#D28572"/>
<path d="M162.829 132.793C162.829 132.793 173.921 126.454 176.773 187.62L213.853 194.751C207.655 202.462 203.311 210.961 200.86 220.263L169.284 216.871C164.885 216.398 160.751 214.533 157.485 211.547C153.589 207.984 151.194 203.071 150.79 197.808L146.666 144.201L162.829 132.793Z" fill="#610C9F"/>
<path d="M201.353 220.95L167.777 217.522C162.25 216.957 157.076 214.157 153.58 209.839C150.766 206.363 149.11 201.988 148.919 197.52L147.238 158.376L148.503 158.321L150.184 197.465C150.364 201.665 151.92 205.776 154.564 209.043C157.849 213.1 162.712 215.732 167.905 216.262L200.371 219.577C203.535 206.378 210.316 197.79 212.622 195.158L176.214 188.157L169.754 144.654L171.006 144.468L177.334 187.084L215.147 194.355L214.301 195.2C214.209 195.291 205.138 204.482 201.477 220.405L201.353 220.95Z" fill="#202020"/>
<path d="M152.794 227.807L152.511 229.041L173.332 233.825L173.616 232.591L152.794 227.807Z" fill="#202020"/>
<path d="M256.641 216.308L252.695 209.246L248.802 207.299L249.179 206.544L253.305 208.607L257.378 215.896L256.641 216.308Z" fill="#D28572"/>
<path d="M248.429 211.955L247.704 212.389L252.195 219.899L252.919 219.466L248.429 211.955Z" fill="#D28572"/>
<path d="M243.256 214.804L242.531 215.237L247.022 222.748L247.746 222.314L243.256 214.804Z" fill="#D28572"/>
<path d="M324.461 463.66L324.144 487.746L297.522 505.177H347.913L349.815 460.491L324.461 463.66Z" fill="#202020"/>
<path d="M324.658 487.036L323.669 488.404L331.978 494.405L332.966 493.037L324.658 487.036Z" fill="#FEFEFE"/>
<path d="M429.84 453.519L435.545 484.419L453.609 505.177H416.054L408.765 460.491L429.84 453.519Z" fill="#202020"/>
<path d="M434.898 483.785L428.602 490.864L429.863 491.986L436.159 484.907L434.898 483.785Z" fill="#FEFEFE"/>
<path d="M328.896 236.743C328.896 236.743 313.367 299.494 318.121 467.78H354.25C354.25 467.78 363.758 327.066 377.069 231.99L328.896 236.743Z" fill="#202020"/>
<path d="M410.981 231.039L439.345 463.502L402.107 469.682L357.214 231.507L410.981 231.039Z" fill="#202020"/>
<path d="M376.848 338.537L366.795 281.009L354.848 278.837L355.075 277.591L367.89 279.921L367.966 280.356L378.096 338.319L376.848 338.537Z" fill="#202020"/>
<path d="M320.451 374.74C319.928 374.74 319.425 374.562 319.015 374.227C318.541 373.841 318.247 373.293 318.187 372.686C318.068 371.506 318.891 370.42 320.059 370.213L330.477 368.37L330.698 369.616L320.279 371.46C319.76 371.552 319.394 372.035 319.446 372.56C319.473 372.83 319.604 373.074 319.814 373.245C320.025 373.417 320.289 373.496 320.561 373.468L325.036 373.005L325.166 374.265L320.691 374.728C320.611 374.736 320.531 374.74 320.451 374.74Z" fill="#202020"/>
<path d="M385.46 372.273C384.937 372.273 384.434 372.094 384.023 371.76C383.55 371.373 383.256 370.826 383.195 370.219C383.077 369.038 383.899 367.952 385.067 367.746L395.486 365.902L395.707 367.148L385.287 368.992C384.768 369.084 384.402 369.568 384.454 370.092C384.481 370.363 384.612 370.606 384.823 370.778C385.033 370.95 385.295 371.03 385.569 371.001L390.044 370.538L390.175 371.797L385.699 372.26C385.619 372.269 385.539 372.273 385.46 372.273Z" fill="#202020"/>
<path d="M364.629 110.257L332.385 193.008L328.899 236.744L398.305 241.497L388.194 110.924L364.629 110.257Z" fill="white"/>
<path opacity="0.2" d="M330.203 183.251C335.573 183.656 340.844 183.133 345.938 182.025C351.025 180.885 355.924 179.111 360.551 176.762C362.795 175.461 365.133 174.308 367.222 172.738C368.287 171.989 369.434 171.346 370.439 170.509C371.445 169.674 372.472 168.862 373.511 168.056C374.584 167.287 375.512 166.356 376.483 165.462L379.422 162.787C381.309 160.923 383.089 158.942 385.072 157.083C383.694 159.386 382.238 161.675 380.664 163.884L378.06 167.014C377.194 168.066 376.299 169.095 375.282 170.006C371.466 173.929 366.915 177.1 362.095 179.763C357.151 182.203 351.84 183.957 346.375 184.613C340.942 185.285 335.324 185.039 330.203 183.251Z" fill="#202020"/>
<path d="M364.63 110.257C364.63 110.257 351.309 129.669 338.522 270.685C338.452 271.459 337.568 271.876 336.937 271.424L315.748 256.234L334.287 135.486L364.63 110.257Z" fill="#202020"/>
<path d="M364.628 110.257L336.493 117.906C332.177 119.079 328.798 122.441 327.603 126.751L309.09 193.484L270.108 200.614L267.256 224.859L317.839 222.488C323.859 222.205 328.901 217.832 330.031 211.911L343.793 139.765L364.628 110.257Z" fill="#202020"/>
<path d="M388.194 110.924C388.194 110.924 373.393 212.936 373.815 271.18L420.242 269.07L420.331 171.14L388.194 110.924Z" fill="#202020"/>
<path d="M421.718 260.875L355.1 252.029C354.059 251.89 353.327 250.934 353.465 249.893L360.054 200.274C360.193 199.232 361.149 198.501 362.19 198.639L428.808 207.486C429.849 207.624 430.581 208.581 430.443 209.622L423.854 259.24C423.716 260.282 422.759 261.013 421.718 260.875Z" fill="#CBCBFF"/>
<path d="M395.708 233.639C395.679 233.639 395.649 233.638 395.619 233.634L387.06 232.497C386.883 232.473 386.726 232.383 386.618 232.241C386.51 232.099 386.463 231.924 386.487 231.748L387.334 225.373C387.357 225.197 387.448 225.04 387.59 224.931C387.731 224.823 387.905 224.778 388.083 224.801L396.64 225.937C396.817 225.96 396.974 226.051 397.082 226.193C397.19 226.334 397.237 226.509 397.214 226.685L396.367 233.06C396.343 233.236 396.253 233.393 396.112 233.501C395.994 233.592 395.854 233.639 395.708 233.639ZM387.347 231.684L395.554 232.773L396.354 226.75L388.147 225.661L387.347 231.684ZM387.324 231.859V231.86C387.324 231.859 387.324 231.859 387.324 231.859ZM387.97 225.638C387.971 225.638 387.971 225.638 387.971 225.638H387.97Z" fill="white"/>
<path d="M402.752 226.897L400.709 229.816C399.327 231.79 397.361 233.288 395.078 234.06C390.461 235.622 380.99 238.576 382.256 241.495C382.982 243.168 391.801 240.891 391.801 240.891C391.801 240.891 381.609 252.907 385.868 256.558C387.053 257.573 389.071 258.407 391.4 258.95C394.42 259.654 397.397 259.475 399.567 259.138C401.7 258.808 403.637 257.733 405.056 256.107C406.415 254.55 408.211 252.274 409.796 249.55C414.128 242.1 416.572 236.253 417.659 232.373L402.752 226.897Z" fill="#D28572"/>
<path d="M388.192 110.924L409.107 115.553C414.833 116.82 419.553 120.857 421.692 126.318L442.665 174.65C445.857 182.007 445.358 190.446 441.319 197.375L417.635 238.012L399.253 228.187L416.684 184.451L388.192 110.924Z" fill="#202020"/>
<path d="M374.866 125.799C368.406 125.799 363.637 122.035 363.571 121.982L364.365 120.996C364.45 121.063 372.889 127.696 382.237 122.621L382.841 123.734C380.049 125.25 377.334 125.799 374.866 125.799Z" fill="#202020"/>
<path d="M331.851 139.814L315.165 256.136L316.418 256.316L333.104 139.994L331.851 139.814Z" fill="#202020"/>
<path d="M399.837 228.436L398.673 227.939L418.429 181.702L403.62 146.495L404.788 146.005L419.804 181.705L399.837 228.436Z" fill="#202020"/>
<path d="M391.159 249.691L386.375 256.724L387.074 257.199L391.857 250.166L391.159 249.691Z" fill="#925D4F"/>
<path d="M395.658 251.801L390.875 258.835L391.573 259.309L396.357 252.275L395.658 251.801Z" fill="#925D4F"/>
<path d="M402.347 251.965L397.563 258.999L398.261 259.474L403.045 252.44L402.347 251.965Z" fill="#925D4F"/>
<path d="M358.034 70.8019C358.034 70.8019 347.659 79.6943 350.92 82.6584C354.18 85.6226 358.627 86.2156 358.627 86.2156L358.034 70.8019Z" fill="#925D4F"/>
<path d="M388.857 81.1339L388.199 110.932C376.415 123.154 364.631 110.256 364.631 110.256L365.475 104.145L365.846 101.427L367.518 89.2544L367.957 86.0298L380.247 83.1598L388.857 81.1339Z" fill="#D28572"/>
<path d="M381.413 87.8028C381.413 87.8028 377.53 95.4843 365.476 104.145L365.847 101.427L367.519 89.2547L380.147 86.5366L381.413 87.8028Z" fill="#925D4F"/>
<path d="M357.441 60.4274C357.441 60.4274 350.624 97.1827 359.813 96.5901C369.001 95.9971 386.194 86.5121 386.194 86.5121L388.268 69.0235L380.562 57.4633L367.223 57.7595L357.441 60.4274Z" fill="#D28572"/>
<path d="M378.522 78.2863C378.522 78.2863 386.304 91.7362 390.194 91.2913C394.084 90.8469 401.087 65.9478 392.528 55.6106C383.969 45.273 364.517 51.1646 362.961 51.1646C361.404 51.1646 352.734 50.9422 346.843 50.8312C346.843 50.8312 351.623 68.5051 371.186 63.1693C371.186 63.1693 373.521 71.7283 378.189 72.84L378.522 78.2863Z" fill="#202020"/>
<path d="M383.739 76.7148C382.528 80.2584 379.206 82.3307 376.32 81.3444C373.434 80.3576 372.077 76.6856 373.288 73.142C374.5 69.5984 377.821 67.526 380.707 68.5124C383.593 69.4992 384.951 73.1715 383.739 76.7148Z" fill="#D28572"/>
<path opacity="0.3" d="M364.634 84.7344C367.373 84.7344 369.593 82.5141 369.593 79.7752C369.593 77.0362 367.373 74.8159 364.634 74.8159C361.895 74.8159 359.675 77.0362 359.675 79.7752C359.675 82.5141 361.895 84.7344 364.634 84.7344Z" fill="#BE443D"/>
<path d="M376.049 78.6593C376.027 78.5661 375.506 76.3561 376.728 74.5092C377.511 73.3266 378.804 72.5808 380.571 72.2921L380.776 73.5418C379.37 73.771 378.363 74.3319 377.783 75.2081C376.863 76.5988 377.275 78.3415 377.279 78.3588L376.049 78.6593Z" fill="#202020"/>
<path d="M549.858 504.855H0V506.17H549.858V504.855Z" fill="#D9D8D8"/>
</svg>
