<svg width="14" height="8" viewBox="0 0 14 8" fill="none" xmlns="http://www.w3.org/2000/svg">
<path d="M7.08221 6.2224L12.4478 0.863996C12.4999 0.811635 12.562 0.770259 12.6303 0.74232C12.6987 0.714381 12.772 0.700446 12.8458 0.701341C12.9197 0.702236 12.9926 0.717943 13.0603 0.747532C13.128 0.77712 13.189 0.819988 13.2398 0.873597C13.3439 0.983249 13.4011 1.12917 13.3993 1.28035C13.3975 1.43152 13.3369 1.57604 13.2302 1.6832L7.46781 7.4376C7.4161 7.48965 7.35454 7.53088 7.28671 7.55887C7.21889 7.58685 7.14617 7.60104 7.0728 7.60059C6.99943 7.60014 6.92689 7.58507 6.85941 7.55626C6.79193 7.52745 6.73087 7.48548 6.67981 7.4328L0.763805 1.376C0.659103 1.26757 0.600586 1.12273 0.600586 0.971997C0.600586 0.821268 0.659103 0.676425 0.763805 0.567997C0.815255 0.515017 0.876813 0.472899 0.944833 0.444138C1.01285 0.415378 1.08595 0.400558 1.15981 0.400558C1.23366 0.400558 1.30676 0.415378 1.37478 0.444138C1.4428 0.472899 1.50436 0.515017 1.55581 0.567997L7.08221 6.2224Z" fill="#202020"/>
</svg>
