<svg width="18" height="16" viewBox="0 0 18 16" fill="none" xmlns="http://www.w3.org/2000/svg">
<path d="M14.6895 7.74997H15.8968L15.043 6.89637L9.57255 1.42742C9.57254 1.4274 9.57252 1.42739 9.5725 1.42737C9.52547 1.38031 9.49905 1.3165 9.49905 1.24997C9.49905 1.18342 9.52549 1.11959 9.57255 1.07252C9.61961 1.02546 9.68344 0.999023 9.75 0.999023C9.81656 0.999023 9.88039 1.02546 9.92745 1.07252L16.6774 7.82252L16.6779 7.82297C16.7012 7.84619 16.7196 7.87378 16.7323 7.90415C16.7449 7.93453 16.7513 7.96709 16.7513 7.99997C16.7513 8.03285 16.7449 8.06541 16.7323 8.09579C16.7196 8.12616 16.7012 8.15375 16.6779 8.17697L16.6774 8.17742L9.92745 14.9274C9.88039 14.9745 9.81656 15.0009 9.75 15.0009C9.68344 15.0009 9.61961 14.9745 9.57255 14.9274C9.52549 14.8804 9.49905 14.8165 9.49905 14.75C9.49905 14.6834 9.52549 14.6196 9.57255 14.5725L15.043 9.10357L15.8968 8.24997H14.6895H0.75C0.683694 8.24997 0.620107 8.22363 0.573224 8.17675C0.52634 8.12986 0.5 8.06627 0.5 7.99997C0.5 7.93367 0.526339 7.87008 0.573223 7.82319C0.620109 7.77631 0.683698 7.74997 0.75 7.74997H14.6895Z" stroke="#610C9F"/>
</svg>
